<svg width="288" height="205" viewBox="0 0 288 205" fill="none" xmlns="http://www.w3.org/2000/svg">
<path d="M5.84375 131.227L8.85156 123.625H10.5859L6.5625 133.102C6.44792 133.367 6.32031 133.625 6.17969 133.875C6.03906 134.12 5.86719 134.339 5.66406 134.531C5.46094 134.724 5.20833 134.878 4.90625 134.992C4.60938 135.107 4.23958 135.164 3.79688 135.164C3.67188 135.164 3.52344 135.156 3.35156 135.141C3.17969 135.13 3.06771 135.117 3.01562 135.102L3.0625 133.898C3.11979 133.909 3.23177 133.919 3.39844 133.93C3.5651 133.935 3.6875 133.938 3.76562 133.938C4.0625 133.938 4.29688 133.878 4.46875 133.758C4.64062 133.638 4.77865 133.487 4.88281 133.305C4.99219 133.117 5.09115 132.927 5.17969 132.734L5.84375 131.227ZM3.28906 123.625L6.45312 130.711L6.82812 132.109L5.5625 132.203L1.60156 123.625H3.28906ZM17.6562 126.547H19.1016L18.9766 129.711C18.9453 130.513 18.8542 131.206 18.7031 131.789C18.5521 132.372 18.3594 132.87 18.125 133.281C17.8906 133.688 17.6276 134.029 17.3359 134.305C17.0495 134.581 16.7526 134.812 16.4453 135H15.7266L15.7656 133.82L16.0625 133.812C16.2344 133.609 16.401 133.401 16.5625 133.188C16.724 132.969 16.8724 132.711 17.0078 132.414C17.1432 132.112 17.2552 131.745 17.3438 131.312C17.4375 130.875 17.4974 130.341 17.5234 129.711L17.6562 126.547ZM18.0156 126.547H23.1016V135H21.6562V127.883H18.0156V126.547ZM15.3984 133.812H24.1875V137.492H22.7422V135H16.8438V137.492H15.3906L15.3984 133.812ZM25.4062 130.867V130.688C25.4062 130.078 25.4948 129.513 25.6719 128.992C25.849 128.466 26.1042 128.01 26.4375 127.625C26.7708 127.234 27.1745 126.932 27.6484 126.719C28.1224 126.5 28.6536 126.391 29.2422 126.391C29.8359 126.391 30.3698 126.5 30.8438 126.719C31.3229 126.932 31.7292 127.234 32.0625 127.625C32.401 128.01 32.6589 128.466 32.8359 128.992C33.013 129.513 33.1016 130.078 33.1016 130.688V130.867C33.1016 131.477 33.013 132.042 32.8359 132.562C32.6589 133.083 32.401 133.539 32.0625 133.93C31.7292 134.315 31.3255 134.617 30.8516 134.836C30.3828 135.049 29.8516 135.156 29.2578 135.156C28.6641 135.156 28.1302 135.049 27.6562 134.836C27.1823 134.617 26.776 134.315 26.4375 133.93C26.1042 133.539 25.849 133.083 25.6719 132.562C25.4948 132.042 25.4062 131.477 25.4062 130.867ZM26.8516 130.688V130.867C26.8516 131.289 26.901 131.688 27 132.062C27.099 132.432 27.2474 132.76 27.4453 133.047C27.6484 133.333 27.901 133.56 28.2031 133.727C28.5052 133.888 28.8568 133.969 29.2578 133.969C29.6536 133.969 30 133.888 30.2969 133.727C30.599 133.56 30.849 133.333 31.0469 133.047C31.2448 132.76 31.3932 132.432 31.4922 132.062C31.5964 131.688 31.6484 131.289 31.6484 130.867V130.688C31.6484 130.271 31.5964 129.878 31.4922 129.508C31.3932 129.133 31.2422 128.802 31.0391 128.516C30.8411 128.224 30.5911 127.995 30.2891 127.828C29.9922 127.661 29.6432 127.578 29.2422 127.578C28.8464 127.578 28.4974 127.661 28.1953 127.828C27.8984 127.995 27.6484 128.224 27.4453 128.516C27.2474 128.802 27.099 129.133 27 129.508C26.901 129.878 26.8516 130.271 26.8516 130.688ZM40.375 126.547V127.742H36.4688V135H35.0234V126.547H40.375ZM41.0938 130.867V130.688C41.0938 130.078 41.1823 129.513 41.3594 128.992C41.5365 128.466 41.7917 128.01 42.125 127.625C42.4583 127.234 42.862 126.932 43.3359 126.719C43.8099 126.5 44.3411 126.391 44.9297 126.391C45.5234 126.391 46.0573 126.5 46.5312 126.719C47.0104 126.932 47.4167 127.234 47.75 127.625C48.0885 128.01 48.3464 128.466 48.5234 128.992C48.7005 129.513 48.7891 130.078 48.7891 130.688V130.867C48.7891 131.477 48.7005 132.042 48.5234 132.562C48.3464 133.083 48.0885 133.539 47.75 133.93C47.4167 134.315 47.013 134.617 46.5391 134.836C46.0703 135.049 45.5391 135.156 44.9453 135.156C44.3516 135.156 43.8177 135.049 43.3438 134.836C42.8698 134.617 42.4635 134.315 42.125 133.93C41.7917 133.539 41.5365 133.083 41.3594 132.562C41.1823 132.042 41.0938 131.477 41.0938 130.867ZM42.5391 130.688V130.867C42.5391 131.289 42.5885 131.688 42.6875 132.062C42.7865 132.432 42.9349 132.76 43.1328 133.047C43.3359 133.333 43.5885 133.56 43.8906 133.727C44.1927 133.888 44.5443 133.969 44.9453 133.969C45.3411 133.969 45.6875 133.888 45.9844 133.727C46.2865 133.56 46.5365 133.333 46.7344 133.047C46.9323 132.76 47.0807 132.432 47.1797 132.062C47.2839 131.688 47.3359 131.289 47.3359 130.867V130.688C47.3359 130.271 47.2839 129.878 47.1797 129.508C47.0807 129.133 46.9297 128.802 46.7266 128.516C46.5286 128.224 46.2786 127.995 45.9766 127.828C45.6797 127.661 45.3307 127.578 44.9297 127.578C44.5339 127.578 44.1849 127.661 43.8828 127.828C43.5859 127.995 43.3359 128.224 43.1328 128.516C42.9349 128.802 42.7865 129.133 42.6875 129.508C42.5885 129.878 42.5391 130.271 42.5391 130.688ZM54.5703 131.281H51.7969L51.7812 130.125H54.0469C54.4948 130.125 54.8672 130.081 55.1641 129.992C55.4661 129.904 55.6927 129.771 55.8438 129.594C55.9948 129.417 56.0703 129.198 56.0703 128.938C56.0703 128.734 56.026 128.557 55.9375 128.406C55.8542 128.25 55.7266 128.122 55.5547 128.023C55.3828 127.919 55.1693 127.844 54.9141 127.797C54.6641 127.745 54.3698 127.719 54.0312 127.719H52.1797V135H50.7344V126.547H54.0312C54.5677 126.547 55.0495 126.594 55.4766 126.688C55.9089 126.781 56.276 126.924 56.5781 127.117C56.8854 127.305 57.1198 127.544 57.2812 127.836C57.4427 128.128 57.5234 128.471 57.5234 128.867C57.5234 129.122 57.4714 129.365 57.3672 129.594C57.263 129.823 57.1094 130.026 56.9062 130.203C56.7031 130.38 56.4531 130.526 56.1562 130.641C55.8594 130.75 55.5182 130.82 55.1328 130.852L54.5703 131.281ZM54.5703 135H51.2734L51.9922 133.828H54.5703C54.9714 133.828 55.3047 133.779 55.5703 133.68C55.8359 133.576 56.0339 133.43 56.1641 133.242C56.2995 133.049 56.3672 132.82 56.3672 132.555C56.3672 132.289 56.2995 132.062 56.1641 131.875C56.0339 131.682 55.8359 131.536 55.5703 131.438C55.3047 131.333 54.9714 131.281 54.5703 131.281H52.375L52.3906 130.125H55.1328L55.6562 130.562C56.1198 130.599 56.513 130.714 56.8359 130.906C57.1589 131.099 57.4036 131.344 57.5703 131.641C57.737 131.932 57.8203 132.25 57.8203 132.594C57.8203 132.99 57.7448 133.339 57.5938 133.641C57.4479 133.943 57.2344 134.195 56.9531 134.398C56.6719 134.596 56.3307 134.747 55.9297 134.852C55.5286 134.951 55.0755 135 54.5703 135ZM59.375 130.867V130.688C59.375 130.078 59.4635 129.513 59.6406 128.992C59.8177 128.466 60.0729 128.01 60.4062 127.625C60.7396 127.234 61.1432 126.932 61.6172 126.719C62.0911 126.5 62.6224 126.391 63.2109 126.391C63.8047 126.391 64.3385 126.5 64.8125 126.719C65.2917 126.932 65.6979 127.234 66.0312 127.625C66.3698 128.01 66.6276 128.466 66.8047 128.992C66.9818 129.513 67.0703 130.078 67.0703 130.688V130.867C67.0703 131.477 66.9818 132.042 66.8047 132.562C66.6276 133.083 66.3698 133.539 66.0312 133.93C65.6979 134.315 65.2943 134.617 64.8203 134.836C64.3516 135.049 63.8203 135.156 63.2266 135.156C62.6328 135.156 62.099 135.049 61.625 134.836C61.151 134.617 60.7448 134.315 60.4062 133.93C60.0729 133.539 59.8177 133.083 59.6406 132.562C59.4635 132.042 59.375 131.477 59.375 130.867ZM60.8203 130.688V130.867C60.8203 131.289 60.8698 131.688 60.9688 132.062C61.0677 132.432 61.2161 132.76 61.4141 133.047C61.6172 133.333 61.8698 133.56 62.1719 133.727C62.474 133.888 62.8255 133.969 63.2266 133.969C63.6224 133.969 63.9688 133.888 64.2656 133.727C64.5677 133.56 64.8177 133.333 65.0156 133.047C65.2135 132.76 65.362 132.432 65.4609 132.062C65.5651 131.688 65.6172 131.289 65.6172 130.867V130.688C65.6172 130.271 65.5651 129.878 65.4609 129.508C65.362 129.133 65.2109 128.802 65.0078 128.516C64.8099 128.224 64.5599 127.995 64.2578 127.828C63.9609 127.661 63.612 127.578 63.2109 127.578C62.8151 127.578 62.4661 127.661 62.1641 127.828C61.8672 127.995 61.6172 128.224 61.4141 128.516C61.2161 128.802 61.0677 129.133 60.9688 129.508C60.8698 129.878 60.8203 130.271 60.8203 130.688ZM70.3281 128.172V138.25H68.875V126.547H70.2031L70.3281 128.172ZM76.0234 130.703V130.867C76.0234 131.482 75.9505 132.052 75.8047 132.578C75.6589 133.099 75.4453 133.552 75.1641 133.938C74.888 134.323 74.5469 134.622 74.1406 134.836C73.7344 135.049 73.2682 135.156 72.7422 135.156C72.2057 135.156 71.7318 135.068 71.3203 134.891C70.9089 134.714 70.5599 134.456 70.2734 134.117C69.987 133.779 69.7578 133.372 69.5859 132.898C69.4193 132.424 69.3047 131.891 69.2422 131.297V130.422C69.3047 129.797 69.4219 129.237 69.5938 128.742C69.7656 128.247 69.9922 127.826 70.2734 127.477C70.5599 127.122 70.9062 126.854 71.3125 126.672C71.7188 126.484 72.1875 126.391 72.7188 126.391C73.25 126.391 73.7214 126.495 74.1328 126.703C74.5443 126.906 74.8906 127.198 75.1719 127.578C75.4531 127.958 75.6641 128.414 75.8047 128.945C75.9505 129.471 76.0234 130.057 76.0234 130.703ZM74.5703 130.867V130.703C74.5703 130.281 74.526 129.885 74.4375 129.516C74.349 129.141 74.2109 128.812 74.0234 128.531C73.8411 128.245 73.6068 128.021 73.3203 127.859C73.0339 127.693 72.6927 127.609 72.2969 127.609C71.9323 127.609 71.6146 127.672 71.3438 127.797C71.0781 127.922 70.8516 128.091 70.6641 128.305C70.4766 128.513 70.3229 128.753 70.2031 129.023C70.0885 129.289 70.0026 129.565 69.9453 129.852V131.875C70.0495 132.24 70.1953 132.583 70.3828 132.906C70.5703 133.224 70.8203 133.482 71.1328 133.68C71.4453 133.872 71.8385 133.969 72.3125 133.969C72.7031 133.969 73.0391 133.888 73.3203 133.727C73.6068 133.56 73.8411 133.333 74.0234 133.047C74.2109 132.76 74.349 132.432 74.4375 132.062C74.526 131.688 74.5703 131.289 74.5703 130.867ZM79.4375 126.547V135H77.9844V126.547H79.4375ZM77.875 124.305C77.875 124.07 77.9453 123.872 78.0859 123.711C78.2318 123.549 78.4453 123.469 78.7266 123.469C79.0026 123.469 79.2135 123.549 79.3594 123.711C79.5104 123.872 79.5859 124.07 79.5859 124.305C79.5859 124.529 79.5104 124.721 79.3594 124.883C79.2135 125.039 79.0026 125.117 78.7266 125.117C78.4453 125.117 78.2318 125.039 78.0859 124.883C77.9453 124.721 77.875 124.529 77.875 124.305ZM91.3594 126.547V127.742H87.0859V126.547H91.3594ZM87.2969 126.547V135H85.8516V126.547H87.2969ZM92.6406 126.547V135H91.1875V126.547H92.6406ZM96.4062 128.172V138.25H94.9531V126.547H96.2812L96.4062 128.172ZM102.102 130.703V130.867C102.102 131.482 102.029 132.052 101.883 132.578C101.737 133.099 101.523 133.552 101.242 133.938C100.966 134.323 100.625 134.622 100.219 134.836C99.8125 135.049 99.3464 135.156 98.8203 135.156C98.2839 135.156 97.8099 135.068 97.3984 134.891C96.987 134.714 96.638 134.456 96.3516 134.117C96.0651 133.779 95.8359 133.372 95.6641 132.898C95.4974 132.424 95.3828 131.891 95.3203 131.297V130.422C95.3828 129.797 95.5 129.237 95.6719 128.742C95.8438 128.247 96.0703 127.826 96.3516 127.477C96.638 127.122 96.9844 126.854 97.3906 126.672C97.7969 126.484 98.2656 126.391 98.7969 126.391C99.3281 126.391 99.7995 126.495 100.211 126.703C100.622 126.906 100.969 127.198 101.25 127.578C101.531 127.958 101.742 128.414 101.883 128.945C102.029 129.471 102.102 130.057 102.102 130.703ZM100.648 130.867V130.703C100.648 130.281 100.604 129.885 100.516 129.516C100.427 129.141 100.289 128.812 100.102 128.531C99.9193 128.245 99.6849 128.021 99.3984 127.859C99.112 127.693 98.7708 127.609 98.375 127.609C98.0104 127.609 97.6927 127.672 97.4219 127.797C97.1562 127.922 96.9297 128.091 96.7422 128.305C96.5547 128.513 96.401 128.753 96.2812 129.023C96.1667 129.289 96.0807 129.565 96.0234 129.852V131.875C96.1276 132.24 96.2734 132.583 96.4609 132.906C96.6484 133.224 96.8984 133.482 97.2109 133.68C97.5234 133.872 97.9167 133.969 98.3906 133.969C98.7812 133.969 99.1172 133.888 99.3984 133.727C99.6849 133.56 99.9193 133.333 100.102 133.047C100.289 132.76 100.427 132.432 100.516 132.062C100.604 131.688 100.648 131.289 100.648 130.867ZM103.562 130.867V130.688C103.562 130.078 103.651 129.513 103.828 128.992C104.005 128.466 104.26 128.01 104.594 127.625C104.927 127.234 105.331 126.932 105.805 126.719C106.279 126.5 106.81 126.391 107.398 126.391C107.992 126.391 108.526 126.5 109 126.719C109.479 126.932 109.885 127.234 110.219 127.625C110.557 128.01 110.815 128.466 110.992 128.992C111.169 129.513 111.258 130.078 111.258 130.688V130.867C111.258 131.477 111.169 132.042 110.992 132.562C110.815 133.083 110.557 133.539 110.219 133.93C109.885 134.315 109.482 134.617 109.008 134.836C108.539 135.049 108.008 135.156 107.414 135.156C106.82 135.156 106.286 135.049 105.812 134.836C105.339 134.617 104.932 134.315 104.594 133.93C104.26 133.539 104.005 133.083 103.828 132.562C103.651 132.042 103.562 131.477 103.562 130.867ZM105.008 130.688V130.867C105.008 131.289 105.057 131.688 105.156 132.062C105.255 132.432 105.404 132.76 105.602 133.047C105.805 133.333 106.057 133.56 106.359 133.727C106.661 133.888 107.013 133.969 107.414 133.969C107.81 133.969 108.156 133.888 108.453 133.727C108.755 133.56 109.005 133.333 109.203 133.047C109.401 132.76 109.549 132.432 109.648 132.062C109.753 131.688 109.805 131.289 109.805 130.867V130.688C109.805 130.271 109.753 129.878 109.648 129.508C109.549 129.133 109.398 128.802 109.195 128.516C108.997 128.224 108.747 127.995 108.445 127.828C108.148 127.661 107.799 127.578 107.398 127.578C107.003 127.578 106.654 127.661 106.352 127.828C106.055 127.995 105.805 128.224 105.602 128.516C105.404 128.802 105.255 129.133 105.156 129.508C105.057 129.878 105.008 130.271 105.008 130.688ZM118.703 126.547V127.742H114.43V126.547H118.703ZM114.641 126.547V135H113.195V126.547H114.641ZM119.984 126.547V135H118.531V126.547H119.984ZM123.867 132.711L127.766 126.547H129.219V135H127.766V128.836L123.867 135H122.43V126.547H123.867V132.711ZM134.922 133.969C135.266 133.969 135.583 133.898 135.875 133.758C136.167 133.617 136.406 133.424 136.594 133.18C136.781 132.93 136.888 132.646 136.914 132.328H138.289C138.263 132.828 138.094 133.294 137.781 133.727C137.474 134.154 137.07 134.5 136.57 134.766C136.07 135.026 135.521 135.156 134.922 135.156C134.286 135.156 133.732 135.044 133.258 134.82C132.789 134.596 132.398 134.289 132.086 133.898C131.779 133.508 131.547 133.06 131.391 132.555C131.24 132.044 131.164 131.505 131.164 130.938V130.609C131.164 130.042 131.24 129.505 131.391 129C131.547 128.49 131.779 128.039 132.086 127.648C132.398 127.258 132.789 126.951 133.258 126.727C133.732 126.503 134.286 126.391 134.922 126.391C135.583 126.391 136.161 126.526 136.656 126.797C137.151 127.062 137.539 127.427 137.82 127.891C138.107 128.349 138.263 128.87 138.289 129.453H136.914C136.888 129.104 136.789 128.789 136.617 128.508C136.451 128.227 136.221 128.003 135.93 127.836C135.643 127.664 135.307 127.578 134.922 127.578C134.479 127.578 134.107 127.667 133.805 127.844C133.508 128.016 133.271 128.25 133.094 128.547C132.922 128.839 132.797 129.164 132.719 129.523C132.646 129.878 132.609 130.24 132.609 130.609V130.938C132.609 131.307 132.646 131.672 132.719 132.031C132.792 132.391 132.914 132.716 133.086 133.008C133.263 133.299 133.5 133.534 133.797 133.711C134.099 133.883 134.474 133.969 134.922 133.969ZM144.898 133.555V129.203C144.898 128.87 144.831 128.581 144.695 128.336C144.565 128.086 144.367 127.893 144.102 127.758C143.836 127.622 143.508 127.555 143.117 127.555C142.753 127.555 142.432 127.617 142.156 127.742C141.885 127.867 141.672 128.031 141.516 128.234C141.365 128.438 141.289 128.656 141.289 128.891H139.844C139.844 128.589 139.922 128.289 140.078 127.992C140.234 127.695 140.458 127.427 140.75 127.188C141.047 126.943 141.401 126.75 141.812 126.609C142.229 126.464 142.693 126.391 143.203 126.391C143.818 126.391 144.359 126.495 144.828 126.703C145.302 126.911 145.672 127.227 145.938 127.648C146.208 128.065 146.344 128.589 146.344 129.219V133.156C146.344 133.438 146.367 133.737 146.414 134.055C146.466 134.372 146.542 134.646 146.641 134.875V135H145.133C145.06 134.833 145.003 134.612 144.961 134.336C144.919 134.055 144.898 133.794 144.898 133.555ZM145.148 129.875L145.164 130.891H143.703C143.292 130.891 142.924 130.924 142.602 130.992C142.279 131.055 142.008 131.151 141.789 131.281C141.57 131.411 141.404 131.576 141.289 131.773C141.174 131.966 141.117 132.193 141.117 132.453C141.117 132.719 141.177 132.961 141.297 133.18C141.417 133.398 141.596 133.573 141.836 133.703C142.081 133.828 142.38 133.891 142.734 133.891C143.177 133.891 143.568 133.797 143.906 133.609C144.245 133.422 144.513 133.193 144.711 132.922C144.914 132.651 145.023 132.388 145.039 132.133L145.656 132.828C145.62 133.047 145.521 133.289 145.359 133.555C145.198 133.82 144.982 134.076 144.711 134.32C144.445 134.56 144.128 134.76 143.758 134.922C143.393 135.078 142.982 135.156 142.523 135.156C141.951 135.156 141.448 135.044 141.016 134.82C140.589 134.596 140.255 134.297 140.016 133.922C139.781 133.542 139.664 133.117 139.664 132.648C139.664 132.195 139.753 131.797 139.93 131.453C140.107 131.104 140.362 130.815 140.695 130.586C141.029 130.352 141.43 130.174 141.898 130.055C142.367 129.935 142.891 129.875 143.469 129.875H145.148ZM154.352 130.211V131.383H149.883V130.211H154.352ZM150.188 126.547V135H148.742V126.547H150.188ZM155.523 126.547V135H154.07V126.547H155.523ZM157.469 130.867V130.688C157.469 130.078 157.557 129.513 157.734 128.992C157.911 128.466 158.167 128.01 158.5 127.625C158.833 127.234 159.237 126.932 159.711 126.719C160.185 126.5 160.716 126.391 161.305 126.391C161.898 126.391 162.432 126.5 162.906 126.719C163.385 126.932 163.792 127.234 164.125 127.625C164.464 128.01 164.721 128.466 164.898 128.992C165.076 129.513 165.164 130.078 165.164 130.688V130.867C165.164 131.477 165.076 132.042 164.898 132.562C164.721 133.083 164.464 133.539 164.125 133.93C163.792 134.315 163.388 134.617 162.914 134.836C162.445 135.049 161.914 135.156 161.32 135.156C160.727 135.156 160.193 135.049 159.719 134.836C159.245 134.617 158.839 134.315 158.5 133.93C158.167 133.539 157.911 133.083 157.734 132.562C157.557 132.042 157.469 131.477 157.469 130.867ZM158.914 130.688V130.867C158.914 131.289 158.964 131.688 159.062 132.062C159.161 132.432 159.31 132.76 159.508 133.047C159.711 133.333 159.964 133.56 160.266 133.727C160.568 133.888 160.919 133.969 161.32 133.969C161.716 133.969 162.062 133.888 162.359 133.727C162.661 133.56 162.911 133.333 163.109 133.047C163.307 132.76 163.456 132.432 163.555 132.062C163.659 131.688 163.711 131.289 163.711 130.867V130.688C163.711 130.271 163.659 129.878 163.555 129.508C163.456 129.133 163.305 128.802 163.102 128.516C162.904 128.224 162.654 127.995 162.352 127.828C162.055 127.661 161.706 127.578 161.305 127.578C160.909 127.578 160.56 127.661 160.258 127.828C159.961 127.995 159.711 128.224 159.508 128.516C159.31 128.802 159.161 129.133 159.062 129.508C158.964 129.878 158.914 130.271 158.914 130.688ZM175.805 133.078L178.68 126.547H180.07L176.305 135H175.305L171.555 126.547H172.945L175.805 133.078ZM172.523 126.547V135H171.078V126.547H172.523ZM179.039 135V126.547H180.492V135H179.039ZM182.438 130.867V130.688C182.438 130.078 182.526 129.513 182.703 128.992C182.88 128.466 183.135 128.01 183.469 127.625C183.802 127.234 184.206 126.932 184.68 126.719C185.154 126.5 185.685 126.391 186.273 126.391C186.867 126.391 187.401 126.5 187.875 126.719C188.354 126.932 188.76 127.234 189.094 127.625C189.432 128.01 189.69 128.466 189.867 128.992C190.044 129.513 190.133 130.078 190.133 130.688V130.867C190.133 131.477 190.044 132.042 189.867 132.562C189.69 133.083 189.432 133.539 189.094 133.93C188.76 134.315 188.357 134.617 187.883 134.836C187.414 135.049 186.883 135.156 186.289 135.156C185.695 135.156 185.161 135.049 184.688 134.836C184.214 134.617 183.807 134.315 183.469 133.93C183.135 133.539 182.88 133.083 182.703 132.562C182.526 132.042 182.438 131.477 182.438 130.867ZM183.883 130.688V130.867C183.883 131.289 183.932 131.688 184.031 132.062C184.13 132.432 184.279 132.76 184.477 133.047C184.68 133.333 184.932 133.56 185.234 133.727C185.536 133.888 185.888 133.969 186.289 133.969C186.685 133.969 187.031 133.888 187.328 133.727C187.63 133.56 187.88 133.333 188.078 133.047C188.276 132.76 188.424 132.432 188.523 132.062C188.628 131.688 188.68 131.289 188.68 130.867V130.688C188.68 130.271 188.628 129.878 188.523 129.508C188.424 129.133 188.273 128.802 188.07 128.516C187.872 128.224 187.622 127.995 187.32 127.828C187.023 127.661 186.674 127.578 186.273 127.578C185.878 127.578 185.529 127.661 185.227 127.828C184.93 127.995 184.68 128.224 184.477 128.516C184.279 128.802 184.13 129.133 184.031 129.508C183.932 129.878 183.883 130.271 183.883 130.688ZM196.758 130.133V131.312H192.266V130.133H196.758ZM193.523 126.547V135H192.078V126.547H193.523ZM195.523 130.867V130.688C195.523 130.078 195.612 129.513 195.789 128.992C195.966 128.466 196.221 128.01 196.555 127.625C196.893 127.234 197.297 126.932 197.766 126.719C198.24 126.5 198.771 126.391 199.359 126.391C199.958 126.391 200.495 126.5 200.969 126.719C201.443 126.932 201.846 127.234 202.18 127.625C202.518 128.01 202.776 128.466 202.953 128.992C203.13 129.513 203.219 130.078 203.219 130.688V130.867C203.219 131.477 203.13 132.042 202.953 132.562C202.776 133.083 202.521 133.539 202.188 133.93C201.854 134.315 201.451 134.617 200.977 134.836C200.503 135.049 199.969 135.156 199.375 135.156C198.781 135.156 198.247 135.049 197.773 134.836C197.299 134.617 196.893 134.315 196.555 133.93C196.221 133.539 195.966 133.083 195.789 132.562C195.612 132.042 195.523 131.477 195.523 130.867ZM196.977 130.688V130.867C196.977 131.289 197.026 131.688 197.125 132.062C197.224 132.432 197.372 132.76 197.57 133.047C197.773 133.333 198.023 133.56 198.32 133.727C198.622 133.888 198.974 133.969 199.375 133.969C199.776 133.969 200.125 133.888 200.422 133.727C200.724 133.56 200.974 133.333 201.172 133.047C201.37 132.76 201.518 132.432 201.617 132.062C201.721 131.688 201.773 131.289 201.773 130.867V130.688C201.773 130.271 201.721 129.878 201.617 129.508C201.518 129.133 201.367 128.802 201.164 128.516C200.966 128.224 200.716 127.995 200.414 127.828C200.112 127.661 199.76 127.578 199.359 127.578C198.964 127.578 198.617 127.661 198.32 127.828C198.023 127.995 197.773 128.224 197.57 128.516C197.372 128.802 197.224 129.133 197.125 129.508C197.026 129.878 196.977 130.271 196.977 130.688ZM6.07031 159.281H3.29688L3.28125 158.125H5.54688C5.99479 158.125 6.36719 158.081 6.66406 157.992C6.96615 157.904 7.19271 157.771 7.34375 157.594C7.49479 157.417 7.57031 157.198 7.57031 156.938C7.57031 156.734 7.52604 156.557 7.4375 156.406C7.35417 156.25 7.22656 156.122 7.05469 156.023C6.88281 155.919 6.66927 155.844 6.41406 155.797C6.16406 155.745 5.86979 155.719 5.53125 155.719H3.67969V163H2.23438V154.547H5.53125C6.06771 154.547 6.54948 154.594 6.97656 154.688C7.40885 154.781 7.77604 154.924 8.07812 155.117C8.38542 155.305 8.61979 155.544 8.78125 155.836C8.94271 156.128 9.02344 156.471 9.02344 156.867C9.02344 157.122 8.97135 157.365 8.86719 157.594C8.76302 157.823 8.60938 158.026 8.40625 158.203C8.20312 158.38 7.95312 158.526 7.65625 158.641C7.35938 158.75 7.01823 158.82 6.63281 158.852L6.07031 159.281ZM6.07031 163H2.77344L3.49219 161.828H6.07031C6.47135 161.828 6.80469 161.779 7.07031 161.68C7.33594 161.576 7.53385 161.43 7.66406 161.242C7.79948 161.049 7.86719 160.82 7.86719 160.555C7.86719 160.289 7.79948 160.062 7.66406 159.875C7.53385 159.682 7.33594 159.536 7.07031 159.438C6.80469 159.333 6.47135 159.281 6.07031 159.281H3.875L3.89062 158.125H6.63281L7.15625 158.562C7.61979 158.599 8.01302 158.714 8.33594 158.906C8.65885 159.099 8.90365 159.344 9.07031 159.641C9.23698 159.932 9.32031 160.25 9.32031 160.594C9.32031 160.99 9.24479 161.339 9.09375 161.641C8.94792 161.943 8.73438 162.195 8.45312 162.398C8.17188 162.596 7.83073 162.747 7.42969 162.852C7.02865 162.951 6.57552 163 6.07031 163ZM12.8281 154.547V163H11.375V154.547H12.8281ZM11.2656 152.305C11.2656 152.07 11.3359 151.872 11.4766 151.711C11.6224 151.549 11.8359 151.469 12.1172 151.469C12.3932 151.469 12.6042 151.549 12.75 151.711C12.901 151.872 12.9766 152.07 12.9766 152.305C12.9766 152.529 12.901 152.721 12.75 152.883C12.6042 153.039 12.3932 153.117 12.1172 153.117C11.8359 153.117 11.6224 153.039 11.4766 152.883C11.3359 152.721 11.2656 152.529 11.2656 152.305ZM16.6719 154.547H18.1172L17.9922 157.711C17.9609 158.513 17.8698 159.206 17.7188 159.789C17.5677 160.372 17.375 160.87 17.1406 161.281C16.9062 161.688 16.6432 162.029 16.3516 162.305C16.0651 162.581 15.7682 162.812 15.4609 163H14.7422L14.7812 161.82L15.0781 161.812C15.25 161.609 15.4167 161.401 15.5781 161.188C15.7396 160.969 15.888 160.711 16.0234 160.414C16.1589 160.112 16.2708 159.745 16.3594 159.312C16.4531 158.875 16.513 158.341 16.5391 157.711L16.6719 154.547ZM17.0312 154.547H22.1172V163H20.6719V155.883H17.0312V154.547ZM14.4141 161.812H23.2031V165.492H21.7578V163H15.8594V165.492H14.4062L14.4141 161.812ZM30.4375 154.547V155.742H26.1641V154.547H30.4375ZM26.375 154.547V163H24.9297V154.547H26.375ZM31.7188 154.547V163H30.2656V154.547H31.7188ZM33.6562 158.867V158.688C33.6562 158.078 33.7448 157.513 33.9219 156.992C34.099 156.466 34.3542 156.01 34.6875 155.625C35.0208 155.234 35.4245 154.932 35.8984 154.719C36.3724 154.5 36.9036 154.391 37.4922 154.391C38.0859 154.391 38.6198 154.5 39.0938 154.719C39.5729 154.932 39.9792 155.234 40.3125 155.625C40.651 156.01 40.9089 156.466 41.0859 156.992C41.263 157.513 41.3516 158.078 41.3516 158.688V158.867C41.3516 159.477 41.263 160.042 41.0859 160.562C40.9089 161.083 40.651 161.539 40.3125 161.93C39.9792 162.315 39.5755 162.617 39.1016 162.836C38.6328 163.049 38.1016 163.156 37.5078 163.156C36.9141 163.156 36.3802 163.049 35.9062 162.836C35.4323 162.617 35.026 162.315 34.6875 161.93C34.3542 161.539 34.099 161.083 33.9219 160.562C33.7448 160.042 33.6562 159.477 33.6562 158.867ZM35.1016 158.688V158.867C35.1016 159.289 35.151 159.688 35.25 160.062C35.349 160.432 35.4974 160.76 35.6953 161.047C35.8984 161.333 36.151 161.56 36.4531 161.727C36.7552 161.888 37.1068 161.969 37.5078 161.969C37.9036 161.969 38.25 161.888 38.5469 161.727C38.849 161.56 39.099 161.333 39.2969 161.047C39.4948 160.76 39.6432 160.432 39.7422 160.062C39.8464 159.688 39.8984 159.289 39.8984 158.867V158.688C39.8984 158.271 39.8464 157.878 39.7422 157.508C39.6432 157.133 39.4922 156.802 39.2891 156.516C39.0911 156.224 38.8411 155.995 38.5391 155.828C38.2422 155.661 37.8932 155.578 37.4922 155.578C37.0964 155.578 36.7474 155.661 36.4453 155.828C36.1484 155.995 35.8984 156.224 35.6953 156.516C35.4974 156.802 35.349 157.133 35.25 157.508C35.151 157.878 35.1016 158.271 35.1016 158.688ZM47.1328 159.281H44.3594L44.3438 158.125H46.6094C47.0573 158.125 47.4297 158.081 47.7266 157.992C48.0286 157.904 48.2552 157.771 48.4062 157.594C48.5573 157.417 48.6328 157.198 48.6328 156.938C48.6328 156.734 48.5885 156.557 48.5 156.406C48.4167 156.25 48.2891 156.122 48.1172 156.023C47.9453 155.919 47.7318 155.844 47.4766 155.797C47.2266 155.745 46.9323 155.719 46.5938 155.719H44.7422V163H43.2969V154.547H46.5938C47.1302 154.547 47.612 154.594 48.0391 154.688C48.4714 154.781 48.8385 154.924 49.1406 155.117C49.4479 155.305 49.6823 155.544 49.8438 155.836C50.0052 156.128 50.0859 156.471 50.0859 156.867C50.0859 157.122 50.0339 157.365 49.9297 157.594C49.8255 157.823 49.6719 158.026 49.4688 158.203C49.2656 158.38 49.0156 158.526 48.7188 158.641C48.4219 158.75 48.0807 158.82 47.6953 158.852L47.1328 159.281ZM47.1328 163H43.8359L44.5547 161.828H47.1328C47.5339 161.828 47.8672 161.779 48.1328 161.68C48.3984 161.576 48.5964 161.43 48.7266 161.242C48.862 161.049 48.9297 160.82 48.9297 160.555C48.9297 160.289 48.862 160.062 48.7266 159.875C48.5964 159.682 48.3984 159.536 48.1328 159.438C47.8672 159.333 47.5339 159.281 47.1328 159.281H44.9375L44.9531 158.125H47.6953L48.2188 158.562C48.6823 158.599 49.0755 158.714 49.3984 158.906C49.7214 159.099 49.9661 159.344 50.1328 159.641C50.2995 159.932 50.3828 160.25 50.3828 160.594C50.3828 160.99 50.3073 161.339 50.1562 161.641C50.0104 161.943 49.7969 162.195 49.5156 162.398C49.2344 162.596 48.8932 162.747 48.4922 162.852C48.0911 162.951 47.638 163 47.1328 163ZM53.8906 154.547V163H52.4375V154.547H53.8906ZM52.3281 152.305C52.3281 152.07 52.3984 151.872 52.5391 151.711C52.6849 151.549 52.8984 151.469 53.1797 151.469C53.4557 151.469 53.6667 151.549 53.8125 151.711C53.9635 151.872 54.0391 152.07 54.0391 152.305C54.0391 152.529 53.9635 152.721 53.8125 152.883C53.6667 153.039 53.4557 153.117 53.1797 153.117C52.8984 153.117 52.6849 153.039 52.5391 152.883C52.3984 152.721 52.3281 152.529 52.3281 152.305ZM57.7344 154.547H59.1797L59.0547 157.711C59.0234 158.513 58.9323 159.206 58.7812 159.789C58.6302 160.372 58.4375 160.87 58.2031 161.281C57.9688 161.688 57.7057 162.029 57.4141 162.305C57.1276 162.581 56.8307 162.812 56.5234 163H55.8047L55.8438 161.82L56.1406 161.812C56.3125 161.609 56.4792 161.401 56.6406 161.188C56.8021 160.969 56.9505 160.711 57.0859 160.414C57.2214 160.112 57.3333 159.745 57.4219 159.312C57.5156 158.875 57.5755 158.341 57.6016 157.711L57.7344 154.547ZM58.0938 154.547H63.1797V163H61.7344V155.883H58.0938V154.547ZM55.4766 161.812H64.2656V165.492H62.8203V163H56.9219V165.492H55.4688L55.4766 161.812ZM70.8516 161.555V157.203C70.8516 156.87 70.7839 156.581 70.6484 156.336C70.5182 156.086 70.3203 155.893 70.0547 155.758C69.7891 155.622 69.4609 155.555 69.0703 155.555C68.7057 155.555 68.3854 155.617 68.1094 155.742C67.8385 155.867 67.625 156.031 67.4688 156.234C67.3177 156.438 67.2422 156.656 67.2422 156.891H65.7969C65.7969 156.589 65.875 156.289 66.0312 155.992C66.1875 155.695 66.4115 155.427 66.7031 155.188C67 154.943 67.3542 154.75 67.7656 154.609C68.1823 154.464 68.6458 154.391 69.1562 154.391C69.7708 154.391 70.3125 154.495 70.7812 154.703C71.2552 154.911 71.625 155.227 71.8906 155.648C72.1615 156.065 72.2969 156.589 72.2969 157.219V161.156C72.2969 161.438 72.3203 161.737 72.3672 162.055C72.4193 162.372 72.4948 162.646 72.5938 162.875V163H71.0859C71.013 162.833 70.9557 162.612 70.9141 162.336C70.8724 162.055 70.8516 161.794 70.8516 161.555ZM71.1016 157.875L71.1172 158.891H69.6562C69.2448 158.891 68.8776 158.924 68.5547 158.992C68.2318 159.055 67.9609 159.151 67.7422 159.281C67.5234 159.411 67.3568 159.576 67.2422 159.773C67.1276 159.966 67.0703 160.193 67.0703 160.453C67.0703 160.719 67.1302 160.961 67.25 161.18C67.3698 161.398 67.5495 161.573 67.7891 161.703C68.0339 161.828 68.3333 161.891 68.6875 161.891C69.1302 161.891 69.5208 161.797 69.8594 161.609C70.1979 161.422 70.4661 161.193 70.6641 160.922C70.8672 160.651 70.9766 160.388 70.9922 160.133L71.6094 160.828C71.5729 161.047 71.474 161.289 71.3125 161.555C71.151 161.82 70.9349 162.076 70.6641 162.32C70.3984 162.56 70.0807 162.76 69.7109 162.922C69.3464 163.078 68.9349 163.156 68.4766 163.156C67.9036 163.156 67.401 163.044 66.9688 162.82C66.5417 162.596 66.2083 162.297 65.9688 161.922C65.7344 161.542 65.6172 161.117 65.6172 160.648C65.6172 160.195 65.7057 159.797 65.8828 159.453C66.0599 159.104 66.3151 158.815 66.6484 158.586C66.9818 158.352 67.3828 158.174 67.8516 158.055C68.3203 157.935 68.8438 157.875 69.4219 157.875H71.1016ZM80.2188 154.547V155.742H76.1328V154.547H80.2188ZM81.4922 154.547V163H80.0469V154.547H81.4922ZM75.7812 154.547H77.2344L77.0156 158.625C76.9792 159.255 76.9193 159.812 76.8359 160.297C76.7578 160.776 76.6484 161.188 76.5078 161.531C76.3724 161.875 76.2005 162.156 75.9922 162.375C75.7891 162.589 75.5443 162.747 75.2578 162.852C74.9714 162.951 74.6406 163 74.2656 163H73.8125V161.727L74.125 161.703C74.349 161.688 74.5391 161.635 74.6953 161.547C74.8568 161.458 74.9922 161.328 75.1016 161.156C75.2109 160.979 75.2995 160.753 75.3672 160.477C75.4401 160.201 75.4948 159.872 75.5312 159.492C75.5729 159.112 75.6042 158.669 75.625 158.164L75.7812 154.547ZM85.0078 157.453H87.5469C88.2292 157.453 88.8047 157.573 89.2734 157.812C89.7422 158.047 90.0964 158.372 90.3359 158.789C90.5807 159.201 90.7031 159.669 90.7031 160.195C90.7031 160.586 90.6354 160.953 90.5 161.297C90.3646 161.635 90.1615 161.932 89.8906 162.188C89.625 162.443 89.2943 162.643 88.8984 162.789C88.5078 162.93 88.0573 163 87.5469 163H83.9531V154.547H85.3984V161.812H87.5469C87.9635 161.812 88.2969 161.737 88.5469 161.586C88.7969 161.435 88.9766 161.24 89.0859 161C89.1953 160.76 89.25 160.51 89.25 160.25C89.25 159.995 89.1953 159.745 89.0859 159.5C88.9766 159.255 88.7969 159.052 88.5469 158.891C88.2969 158.724 87.9635 158.641 87.5469 158.641H85.0078V157.453ZM98.2422 158.211V159.383H93.7734V158.211H98.2422ZM94.0781 154.547V163H92.6328V154.547H94.0781ZM99.4141 154.547V163H97.9609V154.547H99.4141ZM103.312 154.547V163H101.859V154.547H103.312ZM101.75 152.305C101.75 152.07 101.82 151.872 101.961 151.711C102.107 151.549 102.32 151.469 102.602 151.469C102.878 151.469 103.089 151.549 103.234 151.711C103.385 151.872 103.461 152.07 103.461 152.305C103.461 152.529 103.385 152.721 103.234 152.883C103.089 153.039 102.878 153.117 102.602 153.117C102.32 153.117 102.107 153.039 101.961 152.883C101.82 152.721 101.75 152.529 101.75 152.305ZM109.016 161.969C109.359 161.969 109.677 161.898 109.969 161.758C110.26 161.617 110.5 161.424 110.688 161.18C110.875 160.93 110.982 160.646 111.008 160.328H112.383C112.357 160.828 112.188 161.294 111.875 161.727C111.568 162.154 111.164 162.5 110.664 162.766C110.164 163.026 109.615 163.156 109.016 163.156C108.38 163.156 107.826 163.044 107.352 162.82C106.883 162.596 106.492 162.289 106.18 161.898C105.872 161.508 105.641 161.06 105.484 160.555C105.333 160.044 105.258 159.505 105.258 158.938V158.609C105.258 158.042 105.333 157.505 105.484 157C105.641 156.49 105.872 156.039 106.18 155.648C106.492 155.258 106.883 154.951 107.352 154.727C107.826 154.503 108.38 154.391 109.016 154.391C109.677 154.391 110.255 154.526 110.75 154.797C111.245 155.062 111.633 155.427 111.914 155.891C112.201 156.349 112.357 156.87 112.383 157.453H111.008C110.982 157.104 110.883 156.789 110.711 156.508C110.544 156.227 110.315 156.003 110.023 155.836C109.737 155.664 109.401 155.578 109.016 155.578C108.573 155.578 108.201 155.667 107.898 155.844C107.602 156.016 107.365 156.25 107.188 156.547C107.016 156.839 106.891 157.164 106.812 157.523C106.74 157.878 106.703 158.24 106.703 158.609V158.938C106.703 159.307 106.74 159.672 106.812 160.031C106.885 160.391 107.008 160.716 107.18 161.008C107.357 161.299 107.594 161.534 107.891 161.711C108.193 161.883 108.568 161.969 109.016 161.969ZM117.453 154.547V163H116V154.547H117.453ZM120.289 154.547V155.719H113.219V154.547H120.289ZM122.898 157.453H125.438C126.12 157.453 126.695 157.573 127.164 157.812C127.633 158.047 127.987 158.372 128.227 158.789C128.471 159.201 128.594 159.669 128.594 160.195C128.594 160.586 128.526 160.953 128.391 161.297C128.255 161.635 128.052 161.932 127.781 162.188C127.516 162.443 127.185 162.643 126.789 162.789C126.398 162.93 125.948 163 125.438 163H121.844V154.547H123.289V161.812H125.438C125.854 161.812 126.188 161.737 126.438 161.586C126.688 161.435 126.867 161.24 126.977 161C127.086 160.76 127.141 160.51 127.141 160.25C127.141 159.995 127.086 159.745 126.977 159.5C126.867 159.255 126.688 159.052 126.438 158.891C126.188 158.724 125.854 158.641 125.438 158.641H122.898V157.453ZM137.523 158.961H135.969V158.07H137.406C137.807 158.07 138.125 158.021 138.359 157.922C138.594 157.818 138.76 157.674 138.859 157.492C138.958 157.31 139.008 157.096 139.008 156.852C139.008 156.633 138.951 156.427 138.836 156.234C138.727 156.036 138.549 155.878 138.305 155.758C138.06 155.633 137.732 155.57 137.32 155.57C136.987 155.57 136.685 155.63 136.414 155.75C136.143 155.865 135.927 156.023 135.766 156.227C135.609 156.424 135.531 156.648 135.531 156.898H134.086C134.086 156.383 134.232 155.94 134.523 155.57C134.82 155.195 135.214 154.906 135.703 154.703C136.198 154.5 136.737 154.398 137.32 154.398C137.81 154.398 138.247 154.453 138.633 154.562C139.023 154.667 139.354 154.823 139.625 155.031C139.896 155.234 140.102 155.49 140.242 155.797C140.388 156.099 140.461 156.451 140.461 156.852C140.461 157.138 140.393 157.409 140.258 157.664C140.122 157.919 139.927 158.146 139.672 158.344C139.417 158.536 139.107 158.688 138.742 158.797C138.383 158.906 137.977 158.961 137.523 158.961ZM135.969 158.414H137.523C138.029 158.414 138.474 158.464 138.859 158.562C139.245 158.656 139.568 158.797 139.828 158.984C140.089 159.172 140.284 159.404 140.414 159.68C140.549 159.951 140.617 160.263 140.617 160.617C140.617 161.013 140.536 161.37 140.375 161.688C140.219 162 139.995 162.266 139.703 162.484C139.411 162.703 139.062 162.87 138.656 162.984C138.255 163.099 137.81 163.156 137.32 163.156C136.773 163.156 136.242 163.062 135.727 162.875C135.211 162.688 134.786 162.398 134.453 162.008C134.12 161.612 133.953 161.109 133.953 160.5H135.398C135.398 160.755 135.479 160.997 135.641 161.227C135.802 161.456 136.026 161.641 136.312 161.781C136.604 161.922 136.94 161.992 137.32 161.992C137.727 161.992 138.065 161.93 138.336 161.805C138.607 161.68 138.81 161.513 138.945 161.305C139.086 161.096 139.156 160.87 139.156 160.625C139.156 160.307 139.094 160.052 138.969 159.859C138.844 159.667 138.651 159.526 138.391 159.438C138.135 159.344 137.807 159.297 137.406 159.297H135.969V158.414ZM147.477 161.555V157.203C147.477 156.87 147.409 156.581 147.273 156.336C147.143 156.086 146.945 155.893 146.68 155.758C146.414 155.622 146.086 155.555 145.695 155.555C145.331 155.555 145.01 155.617 144.734 155.742C144.464 155.867 144.25 156.031 144.094 156.234C143.943 156.438 143.867 156.656 143.867 156.891H142.422C142.422 156.589 142.5 156.289 142.656 155.992C142.812 155.695 143.036 155.427 143.328 155.188C143.625 154.943 143.979 154.75 144.391 154.609C144.807 154.464 145.271 154.391 145.781 154.391C146.396 154.391 146.938 154.495 147.406 154.703C147.88 154.911 148.25 155.227 148.516 155.648C148.786 156.065 148.922 156.589 148.922 157.219V161.156C148.922 161.438 148.945 161.737 148.992 162.055C149.044 162.372 149.12 162.646 149.219 162.875V163H147.711C147.638 162.833 147.581 162.612 147.539 162.336C147.497 162.055 147.477 161.794 147.477 161.555ZM147.727 157.875L147.742 158.891H146.281C145.87 158.891 145.503 158.924 145.18 158.992C144.857 159.055 144.586 159.151 144.367 159.281C144.148 159.411 143.982 159.576 143.867 159.773C143.753 159.966 143.695 160.193 143.695 160.453C143.695 160.719 143.755 160.961 143.875 161.18C143.995 161.398 144.174 161.573 144.414 161.703C144.659 161.828 144.958 161.891 145.312 161.891C145.755 161.891 146.146 161.797 146.484 161.609C146.823 161.422 147.091 161.193 147.289 160.922C147.492 160.651 147.602 160.388 147.617 160.133L148.234 160.828C148.198 161.047 148.099 161.289 147.938 161.555C147.776 161.82 147.56 162.076 147.289 162.32C147.023 162.56 146.706 162.76 146.336 162.922C145.971 163.078 145.56 163.156 145.102 163.156C144.529 163.156 144.026 163.044 143.594 162.82C143.167 162.596 142.833 162.297 142.594 161.922C142.359 161.542 142.242 161.117 142.242 160.648C142.242 160.195 142.331 159.797 142.508 159.453C142.685 159.104 142.94 158.815 143.273 158.586C143.607 158.352 144.008 158.174 144.477 158.055C144.945 157.935 145.469 157.875 146.047 157.875H147.727ZM158.609 154.547V163H157.156V154.547H158.609ZM161.445 154.547V155.719H154.375V154.547H161.445ZM165.75 163.156C165.161 163.156 164.628 163.057 164.148 162.859C163.674 162.656 163.266 162.372 162.922 162.008C162.583 161.643 162.323 161.211 162.141 160.711C161.958 160.211 161.867 159.664 161.867 159.07V158.742C161.867 158.055 161.969 157.443 162.172 156.906C162.375 156.365 162.651 155.906 163 155.531C163.349 155.156 163.745 154.872 164.188 154.68C164.63 154.487 165.089 154.391 165.562 154.391C166.167 154.391 166.688 154.495 167.125 154.703C167.568 154.911 167.93 155.203 168.211 155.578C168.492 155.948 168.701 156.385 168.836 156.891C168.971 157.391 169.039 157.938 169.039 158.531V159.18H162.727V158H167.594V157.891C167.573 157.516 167.495 157.151 167.359 156.797C167.229 156.443 167.021 156.151 166.734 155.922C166.448 155.693 166.057 155.578 165.562 155.578C165.234 155.578 164.932 155.648 164.656 155.789C164.38 155.924 164.143 156.128 163.945 156.398C163.747 156.669 163.594 157 163.484 157.391C163.375 157.781 163.32 158.232 163.32 158.742V159.07C163.32 159.471 163.375 159.849 163.484 160.203C163.599 160.552 163.763 160.859 163.977 161.125C164.195 161.391 164.458 161.599 164.766 161.75C165.078 161.901 165.432 161.977 165.828 161.977C166.339 161.977 166.771 161.872 167.125 161.664C167.479 161.456 167.789 161.177 168.055 160.828L168.93 161.523C168.747 161.799 168.516 162.062 168.234 162.312C167.953 162.562 167.607 162.766 167.195 162.922C166.789 163.078 166.307 163.156 165.75 163.156ZM172.172 156.172V166.25H170.719V154.547H172.047L172.172 156.172ZM177.867 158.703V158.867C177.867 159.482 177.794 160.052 177.648 160.578C177.503 161.099 177.289 161.552 177.008 161.938C176.732 162.323 176.391 162.622 175.984 162.836C175.578 163.049 175.112 163.156 174.586 163.156C174.049 163.156 173.576 163.068 173.164 162.891C172.753 162.714 172.404 162.456 172.117 162.117C171.831 161.779 171.602 161.372 171.43 160.898C171.263 160.424 171.148 159.891 171.086 159.297V158.422C171.148 157.797 171.266 157.237 171.438 156.742C171.609 156.247 171.836 155.826 172.117 155.477C172.404 155.122 172.75 154.854 173.156 154.672C173.562 154.484 174.031 154.391 174.562 154.391C175.094 154.391 175.565 154.495 175.977 154.703C176.388 154.906 176.734 155.198 177.016 155.578C177.297 155.958 177.508 156.414 177.648 156.945C177.794 157.471 177.867 158.057 177.867 158.703ZM176.414 158.867V158.703C176.414 158.281 176.37 157.885 176.281 157.516C176.193 157.141 176.055 156.812 175.867 156.531C175.685 156.245 175.451 156.021 175.164 155.859C174.878 155.693 174.536 155.609 174.141 155.609C173.776 155.609 173.458 155.672 173.188 155.797C172.922 155.922 172.695 156.091 172.508 156.305C172.32 156.513 172.167 156.753 172.047 157.023C171.932 157.289 171.846 157.565 171.789 157.852V159.875C171.893 160.24 172.039 160.583 172.227 160.906C172.414 161.224 172.664 161.482 172.977 161.68C173.289 161.872 173.682 161.969 174.156 161.969C174.547 161.969 174.883 161.888 175.164 161.727C175.451 161.56 175.685 161.333 175.867 161.047C176.055 160.76 176.193 160.432 176.281 160.062C176.37 159.688 176.414 159.289 176.414 158.867ZM184.57 161.078L187.445 154.547H188.836L185.07 163H184.07L180.32 154.547H181.711L184.57 161.078ZM181.289 154.547V163H179.844V154.547H181.289ZM187.805 163V154.547H189.258V163H187.805ZM193.156 154.547V163H191.703V154.547H193.156ZM191.594 152.305C191.594 152.07 191.664 151.872 191.805 151.711C191.951 151.549 192.164 151.469 192.445 151.469C192.721 151.469 192.932 151.549 193.078 151.711C193.229 151.872 193.305 152.07 193.305 152.305C193.305 152.529 193.229 152.721 193.078 152.883C192.932 153.039 192.721 153.117 192.445 153.117C192.164 153.117 191.951 153.039 191.805 152.883C191.664 152.721 191.594 152.529 191.594 152.305ZM201.211 158.211V159.383H196.742V158.211H201.211ZM197.047 154.547V163H195.602V154.547H197.047ZM202.383 154.547V163H200.93V154.547H202.383ZM214.312 154.547V155.742H210.039V154.547H214.312ZM210.25 154.547V163H208.805V154.547H210.25ZM215.594 154.547V163H214.141V154.547H215.594ZM219.359 156.172V166.25H217.906V154.547H219.234L219.359 156.172ZM225.055 158.703V158.867C225.055 159.482 224.982 160.052 224.836 160.578C224.69 161.099 224.477 161.552 224.195 161.938C223.919 162.323 223.578 162.622 223.172 162.836C222.766 163.049 222.299 163.156 221.773 163.156C221.237 163.156 220.763 163.068 220.352 162.891C219.94 162.714 219.591 162.456 219.305 162.117C219.018 161.779 218.789 161.372 218.617 160.898C218.451 160.424 218.336 159.891 218.273 159.297V158.422C218.336 157.797 218.453 157.237 218.625 156.742C218.797 156.247 219.023 155.826 219.305 155.477C219.591 155.122 219.938 154.854 220.344 154.672C220.75 154.484 221.219 154.391 221.75 154.391C222.281 154.391 222.753 154.495 223.164 154.703C223.576 154.906 223.922 155.198 224.203 155.578C224.484 155.958 224.695 156.414 224.836 156.945C224.982 157.471 225.055 158.057 225.055 158.703ZM223.602 158.867V158.703C223.602 158.281 223.557 157.885 223.469 157.516C223.38 157.141 223.242 156.812 223.055 156.531C222.872 156.245 222.638 156.021 222.352 155.859C222.065 155.693 221.724 155.609 221.328 155.609C220.964 155.609 220.646 155.672 220.375 155.797C220.109 155.922 219.883 156.091 219.695 156.305C219.508 156.513 219.354 156.753 219.234 157.023C219.12 157.289 219.034 157.565 218.977 157.852V159.875C219.081 160.24 219.227 160.583 219.414 160.906C219.602 161.224 219.852 161.482 220.164 161.68C220.477 161.872 220.87 161.969 221.344 161.969C221.734 161.969 222.07 161.888 222.352 161.727C222.638 161.56 222.872 161.333 223.055 161.047C223.242 160.76 223.38 160.432 223.469 160.062C223.557 159.688 223.602 159.289 223.602 158.867ZM226.516 158.867V158.688C226.516 158.078 226.604 157.513 226.781 156.992C226.958 156.466 227.214 156.01 227.547 155.625C227.88 155.234 228.284 154.932 228.758 154.719C229.232 154.5 229.763 154.391 230.352 154.391C230.945 154.391 231.479 154.5 231.953 154.719C232.432 154.932 232.839 155.234 233.172 155.625C233.51 156.01 233.768 156.466 233.945 156.992C234.122 157.513 234.211 158.078 234.211 158.688V158.867C234.211 159.477 234.122 160.042 233.945 160.562C233.768 161.083 233.51 161.539 233.172 161.93C232.839 162.315 232.435 162.617 231.961 162.836C231.492 163.049 230.961 163.156 230.367 163.156C229.773 163.156 229.24 163.049 228.766 162.836C228.292 162.617 227.885 162.315 227.547 161.93C227.214 161.539 226.958 161.083 226.781 160.562C226.604 160.042 226.516 159.477 226.516 158.867ZM227.961 158.688V158.867C227.961 159.289 228.01 159.688 228.109 160.062C228.208 160.432 228.357 160.76 228.555 161.047C228.758 161.333 229.01 161.56 229.312 161.727C229.615 161.888 229.966 161.969 230.367 161.969C230.763 161.969 231.109 161.888 231.406 161.727C231.708 161.56 231.958 161.333 232.156 161.047C232.354 160.76 232.503 160.432 232.602 160.062C232.706 159.688 232.758 159.289 232.758 158.867V158.688C232.758 158.271 232.706 157.878 232.602 157.508C232.503 157.133 232.352 156.802 232.148 156.516C231.951 156.224 231.701 155.995 231.398 155.828C231.102 155.661 230.753 155.578 230.352 155.578C229.956 155.578 229.607 155.661 229.305 155.828C229.008 155.995 228.758 156.224 228.555 156.516C228.357 156.802 228.208 157.133 228.109 157.508C228.01 157.878 227.961 158.271 227.961 158.688ZM239.531 163.156C238.943 163.156 238.409 163.057 237.93 162.859C237.456 162.656 237.047 162.372 236.703 162.008C236.365 161.643 236.104 161.211 235.922 160.711C235.74 160.211 235.648 159.664 235.648 159.07V158.742C235.648 158.055 235.75 157.443 235.953 156.906C236.156 156.365 236.432 155.906 236.781 155.531C237.13 155.156 237.526 154.872 237.969 154.68C238.411 154.487 238.87 154.391 239.344 154.391C239.948 154.391 240.469 154.495 240.906 154.703C241.349 154.911 241.711 155.203 241.992 155.578C242.273 155.948 242.482 156.385 242.617 156.891C242.753 157.391 242.82 157.938 242.82 158.531V159.18H236.508V158H241.375V157.891C241.354 157.516 241.276 157.151 241.141 156.797C241.01 156.443 240.802 156.151 240.516 155.922C240.229 155.693 239.839 155.578 239.344 155.578C239.016 155.578 238.714 155.648 238.438 155.789C238.161 155.924 237.924 156.128 237.727 156.398C237.529 156.669 237.375 157 237.266 157.391C237.156 157.781 237.102 158.232 237.102 158.742V159.07C237.102 159.471 237.156 159.849 237.266 160.203C237.38 160.552 237.544 160.859 237.758 161.125C237.977 161.391 238.24 161.599 238.547 161.75C238.859 161.901 239.214 161.977 239.609 161.977C240.12 161.977 240.552 161.872 240.906 161.664C241.26 161.456 241.57 161.177 241.836 160.828L242.711 161.523C242.529 161.799 242.297 162.062 242.016 162.312C241.734 162.562 241.388 162.766 240.977 162.922C240.57 163.078 240.089 163.156 239.531 163.156ZM246.078 154.547V163H244.633V154.547H246.078ZM251.625 154.547L247.617 159.391H245.594L245.375 158.125H247.031L249.867 154.547H251.625ZM250.07 163L246.961 159.172L247.891 158.125L251.906 163H250.07ZM256.609 154.547V163H255.156V154.547H256.609ZM259.445 154.547V155.719H252.375V154.547H259.445ZM263.336 162.125L265.688 154.547H267.234L263.844 164.305C263.766 164.513 263.661 164.737 263.531 164.977C263.406 165.221 263.245 165.453 263.047 165.672C262.849 165.891 262.609 166.068 262.328 166.203C262.052 166.344 261.721 166.414 261.336 166.414C261.221 166.414 261.076 166.398 260.898 166.367C260.721 166.336 260.596 166.31 260.523 166.289L260.516 165.117C260.557 165.122 260.622 165.128 260.711 165.133C260.805 165.143 260.87 165.148 260.906 165.148C261.234 165.148 261.513 165.104 261.742 165.016C261.971 164.932 262.164 164.789 262.32 164.586C262.482 164.388 262.62 164.115 262.734 163.766L263.336 162.125ZM261.609 154.547L263.805 161.109L264.18 162.633L263.141 163.164L260.031 154.547H261.609ZM267.719 162.234C267.719 161.99 267.794 161.784 267.945 161.617C268.102 161.445 268.326 161.359 268.617 161.359C268.909 161.359 269.13 161.445 269.281 161.617C269.438 161.784 269.516 161.99 269.516 162.234C269.516 162.474 269.438 162.677 269.281 162.844C269.13 163.01 268.909 163.094 268.617 163.094C268.326 163.094 268.102 163.01 267.945 162.844C267.794 162.677 267.719 162.474 267.719 162.234Z" fill="black"/>
<path d="M9.15234 76.9375V94H5.64844V76.9375H9.15234ZM14.4023 76.9375V79.6914H0.480469V76.9375H14.4023ZM13.6172 87.7891V87.543C13.6172 86.6133 13.75 85.7578 14.0156 84.9766C14.2812 84.1875 14.668 83.5039 15.1758 82.9258C15.6836 82.3477 16.3086 81.8984 17.0508 81.5781C17.793 81.25 18.6445 81.0859 19.6055 81.0859C20.5664 81.0859 21.4219 81.25 22.1719 81.5781C22.9219 81.8984 23.5508 82.3477 24.0586 82.9258C24.5742 83.5039 24.9648 84.1875 25.2305 84.9766C25.4961 85.7578 25.6289 86.6133 25.6289 87.543V87.7891C25.6289 88.7109 25.4961 89.5664 25.2305 90.3555C24.9648 91.1367 24.5742 91.8203 24.0586 92.4062C23.5508 92.9844 22.9258 93.4336 22.1836 93.7539C21.4414 94.0742 20.5898 94.2344 19.6289 94.2344C18.668 94.2344 17.8125 94.0742 17.0625 93.7539C16.3203 93.4336 15.6914 92.9844 15.1758 92.4062C14.668 91.8203 14.2812 91.1367 14.0156 90.3555C13.75 89.5664 13.6172 88.7109 13.6172 87.7891ZM16.9922 87.543V87.7891C16.9922 88.3203 17.0391 88.8164 17.1328 89.2773C17.2266 89.7383 17.375 90.1445 17.5781 90.4961C17.7891 90.8398 18.0625 91.1094 18.3984 91.3047C18.7344 91.5 19.1445 91.5977 19.6289 91.5977C20.0977 91.5977 20.5 91.5 20.8359 91.3047C21.1719 91.1094 21.4414 90.8398 21.6445 90.4961C21.8477 90.1445 21.9961 89.7383 22.0898 89.2773C22.1914 88.8164 22.2422 88.3203 22.2422 87.7891V87.543C22.2422 87.0273 22.1914 86.543 22.0898 86.0898C21.9961 85.6289 21.8438 85.2227 21.6328 84.8711C21.4297 84.5117 21.1602 84.2305 20.8242 84.0273C20.4883 83.8242 20.082 83.7227 19.6055 83.7227C19.1289 83.7227 18.7227 83.8242 18.3867 84.0273C18.0586 84.2305 17.7891 84.5117 17.5781 84.8711C17.375 85.2227 17.2266 85.6289 17.1328 86.0898C17.0391 86.543 16.9922 87.0273 16.9922 87.543ZM38.3906 81.3203V94H35.0039V81.3203H38.3906ZM36.7969 86.7461V89.3828C36.5391 89.5156 36.207 89.6406 35.8008 89.7578C35.3945 89.875 34.9648 89.9688 34.5117 90.0391C34.0664 90.1016 33.6523 90.1328 33.2695 90.1328C32.0508 90.1328 31.0039 89.9648 30.1289 89.6289C29.2617 89.293 28.5938 88.7656 28.125 88.0469C27.6562 87.3281 27.4219 86.4062 27.4219 85.2812V81.3086H30.7969V85.2812C30.7969 85.8516 30.8828 86.3008 31.0547 86.6289C31.2266 86.9492 31.4922 87.1758 31.8516 87.3086C32.2188 87.4336 32.6914 87.4961 33.2695 87.4961C33.6758 87.4961 34.0703 87.4648 34.4531 87.4023C34.8359 87.3398 35.2188 87.2539 35.6016 87.1445C35.9844 87.0352 36.3828 86.9023 36.7969 86.7461ZM49.6758 86.4414V89.0664H43.2305V86.4414H49.6758ZM44.3555 81.3203V94H40.9805V81.3203H44.3555ZM51.9609 81.3203V94H48.5742V81.3203H51.9609ZM54.0469 87.7891V87.543C54.0469 86.6133 54.1797 85.7578 54.4453 84.9766C54.7109 84.1875 55.0977 83.5039 55.6055 82.9258C56.1133 82.3477 56.7383 81.8984 57.4805 81.5781C58.2227 81.25 59.0742 81.0859 60.0352 81.0859C60.9961 81.0859 61.8516 81.25 62.6016 81.5781C63.3516 81.8984 63.9805 82.3477 64.4883 82.9258C65.0039 83.5039 65.3945 84.1875 65.6602 84.9766C65.9258 85.7578 66.0586 86.6133 66.0586 87.543V87.7891C66.0586 88.7109 65.9258 89.5664 65.6602 90.3555C65.3945 91.1367 65.0039 91.8203 64.4883 92.4062C63.9805 92.9844 63.3555 93.4336 62.6133 93.7539C61.8711 94.0742 61.0195 94.2344 60.0586 94.2344C59.0977 94.2344 58.2422 94.0742 57.4922 93.7539C56.75 93.4336 56.1211 92.9844 55.6055 92.4062C55.0977 91.8203 54.7109 91.1367 54.4453 90.3555C54.1797 89.5664 54.0469 88.7109 54.0469 87.7891ZM57.4219 87.543V87.7891C57.4219 88.3203 57.4688 88.8164 57.5625 89.2773C57.6562 89.7383 57.8047 90.1445 58.0078 90.4961C58.2188 90.8398 58.4922 91.1094 58.8281 91.3047C59.1641 91.5 59.5742 91.5977 60.0586 91.5977C60.5273 91.5977 60.9297 91.5 61.2656 91.3047C61.6016 91.1094 61.8711 90.8398 62.0742 90.4961C62.2773 90.1445 62.4258 89.7383 62.5195 89.2773C62.6211 88.8164 62.6719 88.3203 62.6719 87.7891V87.543C62.6719 87.0273 62.6211 86.543 62.5195 86.0898C62.4258 85.6289 62.2734 85.2227 62.0625 84.8711C61.8594 84.5117 61.5898 84.2305 61.2539 84.0273C60.918 83.8242 60.5117 83.7227 60.0352 83.7227C59.5586 83.7227 59.1523 83.8242 58.8164 84.0273C58.4883 84.2305 58.2188 84.5117 58.0078 84.8711C57.8047 85.2227 57.6562 85.6289 57.5625 86.0898C57.4688 86.543 57.4219 87.0273 57.4219 87.543ZM80.4258 88.7031H76.4531L76.4297 86.4883H79.7109C80.1484 86.4883 80.5039 86.4453 80.7773 86.3594C81.0508 86.2656 81.25 86.1289 81.375 85.9492C81.5078 85.7617 81.5742 85.5352 81.5742 85.2695C81.5742 85.0352 81.5312 84.8359 81.4453 84.6719C81.3672 84.5 81.2461 84.3594 81.082 84.25C80.918 84.1406 80.7109 84.0625 80.4609 84.0156C80.2188 83.9609 79.9336 83.9336 79.6055 83.9336H77.707V94H74.332V81.3203H79.6055C80.4336 81.3203 81.1758 81.3945 81.832 81.543C82.4883 81.6836 83.0469 81.8984 83.5078 82.1875C83.9766 82.4766 84.332 82.8438 84.5742 83.2891C84.8242 83.7266 84.9492 84.2461 84.9492 84.8477C84.9492 85.2383 84.8594 85.6055 84.6797 85.9492C84.5078 86.293 84.25 86.5977 83.9062 86.8633C83.5625 87.1289 83.1367 87.3477 82.6289 87.5195C82.1289 87.6836 81.5508 87.7852 80.8945 87.8242L80.4258 88.7031ZM80.4258 94H75.6211L76.7812 91.3867H80.4258C80.8398 91.3867 81.1797 91.3359 81.4453 91.2344C81.7109 91.1328 81.9062 90.9844 82.0312 90.7891C82.1641 90.5859 82.2305 90.3438 82.2305 90.0625C82.2305 89.7891 82.1719 89.5508 82.0547 89.3477C81.9375 89.1445 81.7461 88.9883 81.4805 88.8789C81.2227 88.7617 80.8711 88.7031 80.4258 88.7031H77.2734L77.2969 86.4883H80.8828L81.7031 87.3789C82.5938 87.4336 83.3281 87.6016 83.9062 87.8828C84.4844 88.1641 84.9102 88.5234 85.1836 88.9609C85.4648 89.3906 85.6055 89.8633 85.6055 90.3789C85.6055 90.9805 85.4922 91.5078 85.2656 91.9609C85.0391 92.4141 84.7031 92.793 84.2578 93.0977C83.8203 93.3945 83.2812 93.6211 82.6406 93.7773C82 93.9258 81.2617 94 80.4258 94ZM100.113 81.3203V94H96.7266V81.3203H100.113ZM104.191 81.3203V83.9336H92.707V81.3203H104.191ZM110.93 94.2344C109.945 94.2344 109.062 94.0781 108.281 93.7656C107.5 93.4453 106.836 93.0039 106.289 92.4414C105.75 91.8789 105.336 91.2266 105.047 90.4844C104.758 89.7344 104.613 88.9375 104.613 88.0938V87.625C104.613 86.6641 104.75 85.7852 105.023 84.9883C105.297 84.1914 105.688 83.5 106.195 82.9141C106.711 82.3281 107.336 81.8789 108.07 81.5664C108.805 81.2461 109.633 81.0859 110.555 81.0859C111.453 81.0859 112.25 81.2344 112.945 81.5312C113.641 81.8281 114.223 82.25 114.691 82.7969C115.168 83.3438 115.527 84 115.77 84.7656C116.012 85.5234 116.133 86.3672 116.133 87.2969V88.7031H106.055V86.4531H112.816V86.1953C112.816 85.7266 112.73 85.3086 112.559 84.9414C112.395 84.5664 112.145 84.2695 111.809 84.0508C111.473 83.832 111.043 83.7227 110.52 83.7227C110.074 83.7227 109.691 83.8203 109.371 84.0156C109.051 84.2109 108.789 84.4844 108.586 84.8359C108.391 85.1875 108.242 85.6016 108.141 86.0781C108.047 86.5469 108 87.0625 108 87.625V88.0938C108 88.6016 108.07 89.0703 108.211 89.5C108.359 89.9297 108.566 90.3008 108.832 90.6133C109.105 90.9258 109.434 91.168 109.816 91.3398C110.207 91.5117 110.648 91.5977 111.141 91.5977C111.75 91.5977 112.316 91.4805 112.84 91.2461C113.371 91.0039 113.828 90.6406 114.211 90.1562L115.852 91.9375C115.586 92.3203 115.223 92.6875 114.762 93.0391C114.309 93.3906 113.762 93.6797 113.121 93.9062C112.48 94.125 111.75 94.2344 110.93 94.2344ZM121.43 83.7578V98.875H118.055V81.3203H121.184L121.43 83.7578ZM129.457 87.5195V87.7656C129.457 88.6875 129.348 89.543 129.129 90.332C128.918 91.1211 128.605 91.8086 128.191 92.3945C127.777 92.9727 127.262 93.4258 126.645 93.7539C126.035 94.0742 125.332 94.2344 124.535 94.2344C123.762 94.2344 123.09 94.0781 122.52 93.7656C121.949 93.4531 121.469 93.0156 121.078 92.4531C120.695 91.8828 120.387 91.2227 120.152 90.4727C119.918 89.7227 119.738 88.918 119.613 88.0586V87.4141C119.738 86.4922 119.918 85.6484 120.152 84.8828C120.387 84.1094 120.695 83.4414 121.078 82.8789C121.469 82.3086 121.945 81.8672 122.508 81.5547C123.078 81.2422 123.746 81.0859 124.512 81.0859C125.316 81.0859 126.023 81.2383 126.633 81.543C127.25 81.8477 127.766 82.2852 128.18 82.8555C128.602 83.4258 128.918 84.1055 129.129 84.8945C129.348 85.6836 129.457 86.5586 129.457 87.5195ZM126.07 87.7656V87.5195C126.07 86.9805 126.023 86.4844 125.93 86.0312C125.844 85.5703 125.703 85.168 125.508 84.8242C125.32 84.4805 125.07 84.2148 124.758 84.0273C124.453 83.832 124.082 83.7344 123.645 83.7344C123.184 83.7344 122.789 83.8086 122.461 83.957C122.141 84.1055 121.879 84.3203 121.676 84.6016C121.473 84.8828 121.32 85.2188 121.219 85.6094C121.117 86 121.055 86.4414 121.031 86.9336V88.5625C121.07 89.1406 121.18 89.6602 121.359 90.1211C121.539 90.5742 121.816 90.9336 122.191 91.1992C122.566 91.4648 123.059 91.5977 123.668 91.5977C124.113 91.5977 124.488 91.5 124.793 91.3047C125.098 91.1016 125.344 90.8242 125.531 90.4727C125.727 90.1211 125.863 89.7148 125.941 89.2539C126.027 88.793 126.07 88.2969 126.07 87.7656ZM139.266 90.1211L142.594 81.3203H145.348L140.402 94H138.129L133.207 81.3203H135.961L139.266 90.1211ZM135.152 81.3203V94H131.777V81.3203H135.152ZM143.461 94V81.3203H146.836V94H143.461ZM153.352 81.3203V94H149.965V81.3203H153.352ZM149.754 78.0156C149.754 77.5234 149.926 77.1172 150.27 76.7969C150.613 76.4766 151.074 76.3164 151.652 76.3164C152.223 76.3164 152.68 76.4766 153.023 76.7969C153.375 77.1172 153.551 77.5234 153.551 78.0156C153.551 78.5078 153.375 78.9141 153.023 79.2344C152.68 79.5547 152.223 79.7148 151.652 79.7148C151.074 79.7148 150.613 79.5547 150.27 79.2344C149.926 78.9141 149.754 78.5078 149.754 78.0156ZM164.824 86.4414V89.0664H158.379V86.4414H164.824ZM159.504 81.3203V94H156.129V81.3203H159.504ZM167.109 81.3203V94H163.723V81.3203H167.109Z" fill="black"/>
<path d="M43.1107 36.7029L40.1611 39.6525L38.3945 37.8778C38.0679 37.5511 37.5381 37.5511 37.2115 37.8778C36.8848 38.2045 36.8848 38.7342 37.2115 39.0609L39.5695 41.419C39.7257 41.5768 39.9389 41.6655 40.1611 41.6655C40.3832 41.6655 40.596 41.5768 40.7526 41.419L44.3271 37.8778C44.5647 37.6744 44.6684 37.3546 44.5952 37.0503C44.522 36.7456 44.2844 36.508 43.9801 36.4347C43.6758 36.3615 43.356 36.4653 43.1521 36.7029H43.1107Z" fill="#21406C"/>
<path d="M44.3271 30.9123V28.3292C44.3271 27.8691 43.954 27.496 43.4939 27.496H40.9943V26.6628C40.9943 25.2824 42.1135 24.1632 43.4939 24.1632C43.954 24.1632 44.3271 23.7901 44.3271 23.33C44.3271 22.8698 43.954 22.4968 43.4939 22.4968C41.1932 22.4968 39.3278 24.3621 39.3278 26.6628V27.496H36.8282C36.3681 27.496 35.995 27.8691 35.995 28.3292V30.9123C31.7219 32.8708 29.3903 37.5414 30.3924 42.1334C31.3948 46.7258 35.4604 50.0001 40.161 50.0001C44.8613 50.0001 48.9273 46.7258 49.9297 42.1334C50.9318 37.5414 48.6002 32.8708 44.3271 30.9123ZM40.9943 48.3263V47.4931C40.9943 47.033 40.6212 46.6599 40.161 46.6599C39.7009 46.6599 39.3278 47.033 39.3278 47.4931V48.3263C35.3546 47.9455 32.2097 44.8006 31.8289 40.8274H32.6621C33.1223 40.8274 33.4953 40.4543 33.4953 39.9942C33.4953 39.5341 33.1223 39.161 32.6621 39.161H31.8289C32.143 36.0491 34.1731 33.3753 37.0865 32.237C37.4071 32.1133 37.6187 31.8057 37.6199 31.4619V29.1625H42.6192V31.4619C42.62 31.8057 42.8316 32.1133 43.1522 32.237C46.0981 33.3505 48.1644 36.0291 48.4932 39.161H47.66C47.1998 39.161 46.8267 39.5341 46.8267 39.9942C46.8267 40.4543 47.1998 40.8274 47.66 40.8274H48.4932C48.1124 44.8006 44.9675 47.9455 40.9943 48.3263Z" fill="#21406C"/>
<path d="M27.8377 43.327C27.6628 43.327 5.16606 43.327 5.16606 43.327C3.78565 43.327 2.66642 42.2078 2.66642 40.8274V14.1646H45.9935V29.5457C45.9935 30.0058 46.3665 30.3789 46.8267 30.3789C47.2868 30.3789 47.6599 30.0058 47.6599 29.5457V8.33212C47.6599 6.03143 45.7945 4.16606 43.4938 4.16606H41.8274V3.33285C41.8274 2.87271 41.4543 2.49964 40.9942 2.49964C40.5341 2.49964 40.161 2.87271 40.161 3.33285V6.6657C40.161 7.58598 39.4148 8.33212 38.4946 8.33212C37.5743 8.33212 36.8281 7.58598 36.8281 6.6657V3.33285C36.8281 2.41257 37.5743 1.66642 38.4946 1.66642C38.9547 1.66642 39.3278 1.29335 39.3278 0.833212C39.3278 0.373074 38.9547 0 38.4946 0C36.654 0 35.1617 1.4923 35.1617 3.33285V4.16606H27.6628V3.33285C27.6628 2.87271 27.2897 2.49964 26.8296 2.49964C26.3694 2.49964 25.9964 2.87271 25.9964 3.33285V6.6657C25.9964 7.58598 25.2502 8.33212 24.3299 8.33212C23.4097 8.33212 22.6635 7.58598 22.6635 6.6657V3.33285C22.6635 2.41257 23.4097 1.66642 24.3299 1.66642C24.7901 1.66642 25.1632 1.29335 25.1632 0.833212C25.1632 0.373074 24.7901 0 24.3299 0C22.4894 0 20.9971 1.4923 20.9971 3.33285V4.16606H13.4982V3.33285C13.4982 2.87271 13.1251 2.49964 12.665 2.49964C12.2048 2.49964 11.8318 2.87271 11.8318 3.33285V6.6657C11.8318 7.58598 11.0856 8.33212 10.1653 8.33212C9.24506 8.33212 8.49891 7.58598 8.49891 6.6657V3.33285C8.49891 2.41257 9.24506 1.66642 10.1653 1.66642C10.6255 1.66642 10.9985 1.29335 10.9985 0.833212C10.9985 0.373074 10.6255 0 10.1653 0C8.32478 0 6.83249 1.4923 6.83249 3.33285V4.16606H5.16606C2.86537 4.16606 1 6.03143 1 8.33212V40.8274C1 43.1281 2.86537 44.9935 5.16606 44.9935H24.3299C28.7043 44.9935 28.7043 44.9935 28.7043 44.1603C28.7055 43.9389 28.6185 43.7257 28.4626 43.5687C28.2975 43.4043 28.0709 43.3165 27.8377 43.327ZM5.16606 5.83249H6.83249V6.6657C6.83249 8.50625 8.32478 9.99855 10.1653 9.99855C12.0059 9.99855 13.4982 8.50625 13.4982 6.6657V5.83249H20.9971V6.6657C20.9971 8.50625 22.4894 9.99855 24.3299 9.99855C26.1705 9.99855 27.6628 8.50625 27.6628 6.6657V5.83249H35.1617V6.6657C35.1617 8.50625 36.654 9.99855 38.4946 9.99855C40.3351 9.99855 41.8274 8.50625 41.8274 6.6657V5.83249H43.4938C44.8742 5.83249 45.9935 6.95171 45.9935 8.33212V12.4982H2.66642V8.33212C2.66642 6.95171 3.78565 5.83249 5.16606 5.83249Z" fill="#21406C"/>
<path d="M15.9979 17.4975C15.9979 17.0373 15.6248 16.6642 15.1647 16.6642H8.49898C8.03885 16.6642 7.66577 17.0373 7.66577 17.4975V24.1632C7.66577 24.6233 8.03885 24.9964 8.49898 24.9964H15.1647C15.6248 24.9964 15.9979 24.6233 15.9979 24.1632V17.4975ZM14.3315 23.3299H9.3322V18.3307H14.3315V23.3299Z" fill="#21406C"/>
<path d="M15.1647 29.9956C15.6248 29.9956 15.9979 29.6226 15.9979 29.1624C15.9979 28.7023 15.6248 28.3292 15.1647 28.3292H8.49898C8.03885 28.3292 7.66577 28.7023 7.66577 29.1624V35.8281C7.66577 36.2883 8.03885 36.6613 8.49898 36.6613H15.1647C15.6248 36.6613 15.9979 36.2883 15.9979 35.8281V32.4953C15.9979 32.0351 15.6248 31.6621 15.1647 31.6621C14.7045 31.6621 14.3315 32.0351 14.3315 32.4953V34.9949H9.3322V29.9956H15.1647Z" fill="#21406C"/>
<path d="M20.164 28.3292C19.7039 28.3292 19.3308 28.7023 19.3308 29.1624V35.8281C19.3308 36.2883 19.7039 36.6613 20.164 36.6613H26.8297C27.2898 36.6613 27.6629 36.2883 27.6629 35.8281V29.1624C27.6629 28.7023 27.2898 28.3292 26.8297 28.3292H20.164ZM25.9965 34.9949H20.9972V29.9956H25.9965V34.9949Z" fill="#21406C"/>
<path d="M38.4946 23.3299C38.9548 23.3299 39.3278 22.9569 39.3278 22.4967V17.4975C39.3278 17.0373 38.9548 16.6642 38.4946 16.6642H31.8289C31.3688 16.6642 30.9957 17.0373 30.9957 17.4975V24.1632C30.9957 24.6233 31.3688 24.9964 31.8289 24.9964C32.2891 24.9964 32.6621 24.6233 32.6621 24.1632V18.3307H37.6614V22.4967C37.6614 22.9569 38.0345 23.3299 38.4946 23.3299Z" fill="#21406C"/>
<path d="M27.4213 16.9059C27.2646 16.7481 27.0519 16.6594 26.8297 16.6594C26.6076 16.6594 26.3944 16.7481 26.2382 16.9059L23.4969 19.6553L20.7556 16.9059C20.4289 16.5792 19.8992 16.5792 19.5725 16.9059C19.2458 17.2326 19.2458 17.7623 19.5725 18.089L22.3219 20.8303L19.5725 23.5716C19.4146 23.7278 19.3259 23.941 19.3259 24.1632C19.3259 24.3853 19.4146 24.5985 19.5725 24.7547C19.7287 24.9126 19.9419 25.0012 20.164 25.0012C20.3862 25.0012 20.5989 24.9126 20.7556 24.7547L23.4969 22.0053L26.2382 24.7547C26.3944 24.9126 26.6076 25.0012 26.8297 25.0012C27.0519 25.0012 27.2646 24.9126 27.4213 24.7547C27.5791 24.5985 27.6678 24.3853 27.6678 24.1632C27.6678 23.941 27.5791 23.7278 27.4213 23.5716L24.6718 20.8303L27.4213 18.089C27.5791 17.9328 27.6678 17.7196 27.6678 17.4975C27.6678 17.2753 27.5791 17.0621 27.4213 16.9059Z" fill="#21406C"/>
</svg>
